{
  "accessors": [
    {
      "bufferView": 2,
      "componentType": 5126,
      "count": 2588,
      "max": [
        3522.260009765625,
        -6148.85986328125,
        -67.86380004882813
      ],
      "min": [
        3521.81005859375,
        -6155.06005859375,
        -68.47949981689453
      ],
      "type": "VEC3"
    },
    {
      "bufferView": 2,
      "byteOffset": 31056,
      "componentType": 5126,
      "count": 2588,
      "max": [
        0.09467621147632599,
        0.9991950392723083,
        0.8332776427268982
      ],
      "min": [
        -0.9994733929634094,
        -0.9991950392723083,
        -0.9983610510826111
      ],
      "type": "VEC3"
    },
    {
      "bufferView": 1,
      "componentType": 5126,
      "count": 2588,
      "max": [
        36.387298583984375,
        -30.96150016784668
      ],
      "min": [
        35.61249923706055,
        -31.03849983215332
      ],
      "type": "VEC2"
    },
    {
      "bufferView": 0,
      "componentType": 5125,
      "count": 11328,
      "type": "SCALAR"
    },
    {
      "bufferView": 2,
      "byteOffset": 62112,
      "componentType": 5126,
      "count": 892,
      "max": [
        3536.35009765625,
        -6148.7099609375,
        -66.86589813232422
      ],
      "min": [
        3534.760009765625,
        -6155.2099609375,
        -68.00140380859375
      ],
      "type": "VEC3"
    },
    {
      "bufferView": 2,
      "byteOffset": 72816,
      "componentType": 5126,
      "count": 892,
      "max": [
        0.9983610510826111,
        1.0,
        0.9994733929634094
      ],
      "min": [
        -0.9700390100479126,
        -1.0,
        -0.999721109867096
      ],
      "type": "VEC3"
    },
    {
      "bufferView": 1,
      "byteOffset": 20704,
      "componentType": 5126,
      "count": 892,
      "max": [
        32.40599822998047,
        -42.90079879760742
      ],
      "min": [
        31.5939998626709,
        -43.099300384521484
      ],
      "type": "VEC2"
    },
    {
      "bufferView": 0,
      "byteOffset": 45312,
      "componentType": 5125,
      "count": 3360,
      "type": "SCALAR"
    },
    {
      "bufferView": 2,
      "byteOffset": 83520,
      "componentType": 5126,
      "count": 412,
      "max": [
        3536.330078125,
        -6148.8798828125,
        -67.27220153808594
      ],
      "min": [
        3535.8701171875,
        -6155.0400390625,
        -67.55650329589844
      ],
      "type": "VEC3"
    },
    {
      "bufferView": 2,
      "byteOffset": 88464,
      "componentType": 5126,
      "count": 412,
      "max": [
        0.9954954981803894,
        0.9988859295845032,
        0.9988859295845032
      ],
      "min": [
        0.0,
        -0.9988859295845032,
        -1.0
      ],
      "type": "VEC3"
    },
    {
      "bufferView": 1,
      "byteOffset": 27840,
      "componentType": 5126,
      "count": 412,
      "max": [
        10.379799842834473,
        -38.974700927734375
      ],
      "min": [
        9.620220184326172,
        -39.02899932861328
      ],
      "type": "VEC2"
    },
    {
      "bufferView": 0,
      "byteOffset": 58752,
      "componentType": 5125,
      "count": 1716,
      "type": "SCALAR"
    },
    {
      "bufferView": 2,
      "byteOffset": 93408,
      "componentType": 5126,
      "count": 16335,
      "max": [
        3522.360107421875,
        -6149.0,
        -67.95099639892578
      ],
      "min": [
        3521.06005859375,
        -6154.93017578125,
        -68.5791015625
      ],
      "type": "VEC3"
    },
    {
      "bufferView": 2,
      "byteOffset": 289428,
      "componentType": 5126,
      "count": 16335,
      "max": [
        0.9888209700584412,
        1.0,
        0.9973753690719604
      ],
      "min": [
        -0.9995043277740479,
        -1.0,
        -0.9854135513305664
      ],
      "type": "VEC3"
    },
    {
      "bufferView": 1,
      "byteOffset": 31136,
      "componentType": 5126,
      "count": 16335,
      "max": [
        46.37080001831055,
        -0.9281420111656189
      ],
      "min": [
        45.62919998168945,
        -1.0815800428390503
      ],
      "type": "VEC2"
    },
    {
      "bufferView": 0,
      "byteOffset": 65616,
      "componentType": 5125,
      "count": 27591,
      "type": "SCALAR"
    },
    {
      "bufferView": 2,
      "byteOffset": 485448,
      "componentType": 5126,
      "count": 22095,
      "max": [
        3536.330078125,
        -6148.740234375,
        -66.9041976928711
      ],
      "min": [
        3534.760009765625,
        -6155.18017578125,
        -68.05989837646484
      ],
      "type": "VEC3"
    },
    {
      "bufferView": 2,
      "byteOffset": 750588,
      "componentType": 5126,
      "count": 22095,
      "max": [
        0.9929882884025574,
        0.9995972514152527,
        0.9998760223388672
      ],
      "min": [
        -0.3858148753643036,
        -0.9995972514152527,
        -0.9987622499465942
      ],
      "type": "VEC3"
    },
    {
      "bufferView": 1,
      "byteOffset": 161816,
      "componentType": 5126,
      "count": 22095,
      "max": [
        56.39849853515625,
        -14.902999877929688
      ],
      "min": [
        55.60150146484375,
        -15.095000267028809
      ],
      "type": "VEC2"
    },
    {
      "bufferView": 0,
      "byteOffset": 175980,
      "componentType": 5125,
      "count": 28266,
      "type": "SCALAR"
    },
    {
      "bufferView": 2,
      "byteOffset": 1015728,
      "componentType": 5126,
      "count": 6802,
      "max": [
        3535.830078125,
        -6147.9599609375,
        -65.39869689941406
      ],
      "min": [
        3525.52001953125,
        -6155.97021484375,
        -71.51419830322266
      ],
      "type": "VEC3"
    },
    {
      "bufferView": 2,
      "byteOffset": 1097352,
      "componentType": 5126,
      "count": 6802,
      "max": [
        1.0,
        1.0,
        1.0
      ],
      "min": [
        -1.0,
        -1.0,
        -1.0
      ],
      "type": "VEC3"
    },
    {
      "bufferView": 1,
      "byteOffset": 338576,
      "componentType": 5126,
      "count": 6802,
      "max": [
        52.5447998046875,
        -2.5
      ],
      "min": [
        0.75,
        -53.54159927368164
      ],
      "type": "VEC2"
    },
    {
      "bufferView": 0,
      "byteOffset": 289044,
      "componentType": 5125,
      "count": 27498,
      "type": "SCALAR"
    },
    {
      "bufferView": 2,
      "byteOffset": 1178976,
      "componentType": 5126,
      "count": 20222,
      "max": [
        3534.340087890625,
        -6148.740234375,
        -64.32330322265625
      ],
      "min": [
        3520.3701171875,
        -6155.2099609375,
        -70.8102035522461
      ],
      "type": "VEC3"
    },
    {
      "bufferView": 2,
      "byteOffset": 1421640,
      "componentType": 5126,
      "count": 20222,
      "max": [
        0.9714901447296143,
        0.9698880910873413,
        1.0
      ],
      "min": [
        -1.0,
        -0.9867943525314331,
        -1.0
      ],
      "type": "VEC3"
    },
    {
      "bufferView": 1,
      "byteOffset": 392992,
      "componentType": 5126,
      "count": 20222,
      "max": [
        56.87329864501953,
        -36.12670135498047
      ],
      "min": [
        55.12670135498047,
        -37.87329864501953
      ],
      "type": "VEC2"
    },
    {
      "bufferView": 0,
      "byteOffset": 399036,
      "componentType": 5125,
      "count": 29997,
      "type": "SCALAR"
    },
    {
      "bufferView": 2,
      "byteOffset": 1664304,
      "componentType": 5126,
      "count": 9023,
      "max": [
        3536.72998046875,
        -6147.89013671875,
        -65.37779998779297
      ],
      "min": [
        3520.800048828125,
        -6156.0498046875,
        -70.55400085449219
      ],
      "type": "VEC3"
    },
    {
      "bufferView": 2,
      "byteOffset": 1772580,
      "componentType": 5126,
      "count": 9023,
      "max": [
        1.0,
        1.0,
        1.0
      ],
      "min": [
        -1.0,
        -1.0,
        -1.0
      ],
      "type": "VEC3"
    },
    {
      "bufferView": 1,
      "byteOffset": 554768,
      "componentType": 5126,
      "count": 9023,
      "max": [
        62.33760070800781,
        1.253730058670044
      ],
      "min": [
        13.625100135803223,
        -55.12630081176758
      ],
      "type": "VEC2"
    },
    {
      "bufferView": 0,
      "byteOffset": 519024,
      "componentType": 5125,
      "count": 34113,
      "type": "SCALAR"
    },
    {
      "bufferView": 2,
      "byteOffset": 1880856,
      "componentType": 5126,
      "count": 8412,
      "max": [
        3535.860107421875,
        -6148.3701171875,
        -65.41230010986328
      ],
      "min": [
        3520.77001953125,
        -6155.509765625,
        -71.5156021118164
      ],
      "type": "VEC3"
    },
    {
      "bufferView": 2,
      "byteOffset": 1981800,
      "componentType": 5126,
      "count": 8412,
      "max": [
        1.0,
        1.0,
        1.0
      ],
      "min": [
        -1.0,
        -1.0,
        -1.0
      ],
      "type": "VEC3"
    },
    {
      "bufferView": 1,
      "byteOffset": 626952,
      "componentType": 5126,
      "count": 8412,
      "max": [
        48.94279861450195,
        -3.75
      ],
      "min": [
        -0.4776279926300049,
        -59.94260025024414
      ],
      "type": "VEC2"
    },
    {
      "bufferView": 0,
      "byteOffset": 655476,
      "componentType": 5125,
      "count": 33021,
      "type": "SCALAR"
    },
    {
      "bufferView": 2,
      "byteOffset": 2082744,
      "componentType": 5126,
      "count": 7776,
      "max": [
        3536.639892578125,
        -6147.8798828125,
        -65.2040023803711
      ],
      "min": [
        3525.419921875,
        -6156.0400390625,
        -70.29830169677734
      ],
      "type": "VEC3"
    },
    {
      "bufferView": 2,
      "byteOffset": 2176056,
      "componentType": 5126,
      "count": 7776,
      "max": [
        0.9999690055847168,
        1.0,
        0.999721109867096
      ],
      "min": [
        -1.0,
        -1.0,
        -0.9999690055847168
      ],
      "type": "VEC3"
    },
    {
      "bufferView": 1,
      "byteOffset": 694248,
      "componentType": 5126,
      "count": 7776,
      "max": [
        42.70000076293945,
        -18.30820083618164
      ],
      "min": [
        41.29999923706055,
        -19.699399948120117
      ],
      "type": "VEC2"
    },
    {
      "bufferView": 0,
      "byteOffset": 787560,
      "componentType": 5125,
      "count": 29073,
      "type": "SCALAR"
    },
    {
      "bufferView": 2,
      "byteOffset": 2269368,
      "componentType": 5126,
      "count": 8302,
      "max": [
        3536.909912109375,
        -6148.31982421875,
        -64.9302978515625
      ],
      "min": [
        3520.27001953125,
        -6155.60009765625,
        -70.58360290527344
      ],
      "type": "VEC3"
    },
    {
      "bufferView": 2,
      "byteOffset": 2368992,
      "componentType": 5126,
      "count": 8302,
      "max": [
        1.0,
        1.0,
        1.0
      ],
      "min": [
        -1.0,
        -0.9999690055847168,
        -1.0
      ],
      "type": "VEC3"
    },
    {
      "bufferView": 1,
      "byteOffset": 756456,
      "componentType": 5126,
      "count": 8302,
      "max": [
        3.03698992729187,
        -9.960200309753418
      ],
      "min": [
        0.9630089998245239,
        -12.039600372314453
      ],
      "type": "VEC2"
    },
    {
      "bufferView": 0,
      "byteOffset": 903852,
      "componentType": 5125,
      "count": 29883,
      "type": "SCALAR"
    },
    {
      "bufferView": 2,
      "byteOffset": 2468616,
      "componentType": 5126,
      "count": 485,
      "max": [
        3536.330078125,
        -6148.759765625,
        -65.3279037475586
      ],
      "min": [
        3535.090087890625,
        -6155.16015625,
        -67.96600341796875
      ],
      "type": "VEC3"
    },
    {
      "bufferView": 2,
      "byteOffset": 2474436,
      "componentType": 5126,
      "count": 485,
      "max": [
        0.9996901750564575,
        0.9758033752441406,
        0.9886134266853333
      ],
      "min": [
        0.15026894211769104,
        -0.9758033752441406,
        -0.9125093221664429
      ],
      "type": "VEC3"
    },
    {
      "bufferView": 1,
      "byteOffset": 822872,
      "componentType": 5126,
      "count": 485,
      "max": [
        60.387699127197266,
        -14.937199592590332
      ],
      "min": [
        33.90439987182617,
        -31.018400192260742
      ],
      "type": "VEC2"
    },
    {
      "bufferView": 0,
      "byteOffset": 1023384,
      "componentType": 5125,
      "count": 1692,
      "type": "SCALAR"
    },
    {
      "bufferView": 2,
      "byteOffset": 2480256,
      "componentType": 5126,
      "count": 100,
      "max": [
        3535.830078125,
        -6148.35009765625,
        -68.70339965820313
      ],
      "min": [
        3522.340087890625,
        -6155.52978515625,
        -71.5156021118164
      ],
      "type": "VEC3"
    },
    {
      "bufferView": 2,
      "byteOffset": 2481456,
      "componentType": 5126,
      "count": 100,
      "max": [
        0.0,
        1.0,
        0.0
      ],
      "min": [
        0.0,
        -1.0,
        0.0
      ],
      "type": "VEC3"
    },
    {
      "bufferView": 1,
      "byteOffset": 826752,
      "componentType": 5126,
      "count": 100,
      "max": [
        1.0,
        1.0
      ],
      "min": [
        0.0,
        0.0
      ],
      "type": "VEC2"
    },
    {
      "bufferView": 0,
      "byteOffset": 1030152,
      "componentType": 5125,
      "count": 288,
      "type": "SCALAR"
    },
    {
      "bufferView": 2,
      "byteOffset": 2482656,
      "componentType": 5126,
      "count": 742,
      "max": [
        3523.1298828125,
        -6148.64990234375,
        -67.62030029296875
      ],
      "min": [
        3520.77001953125,
        -6155.2900390625,
        -69.9811019897461
      ],
      "type": "VEC3"
    },
    {
      "bufferView": 2,
      "byteOffset": 2491560,
      "componentType": 5126,
      "count": 742,
      "max": [
        0.08684872835874557,
        0.9540283679962158,
        0.9830033779144287
      ],
      "min": [
        -0.9984844326972961,
        -0.9540283679962158,
        -0.8283913135528564
      ],
      "type": "VEC3"
    },
    {
      "bufferView": 1,
      "byteOffset": 827552,
      "componentType": 5126,
      "count": 742,
      "max": [
        16.40290069580078,
        -2.981790065765381
      ],
      "min": [
        1.632580041885376,
        -25.147899627685547
      ],
      "type": "VEC2"
    },
    {
      "bufferView": 0,
      "byteOffset": 1031304,
      "componentType": 5125,
      "count": 2916,
      "type": "SCALAR"
    }
  ],
  "asset": {
    "extras": {
      "author": "BHP3D (https://sketchfab.com/BHP3D)",
      "license": "CC-BY-4.0 (http://creativecommons.org/licenses/by/4.0/)",
      "source": "https://sketchfab.com/3d-models/ford-kafigo-12e1435cb4324d89ad7a87906fc02ca8",
      "title": "Ford Ka+/Figo"
    },
    "generator": "Sketchfab-15.44.0",
    "version": "2.0"
  },
  "bufferViews": [
    {
      "buffer": 0,
      "byteLength": 1042968,
      "name": "floatBufferViews",
      "target": 34963
    },
    {
      "buffer": 0,
      "byteLength": 833488,
      "byteOffset": 1042968,
      "byteStride": 8,
      "name": "floatBufferViews",
      "target": 34962
    },
    {
      "buffer": 0,
      "byteLength": 2500464,
      "byteOffset": 1876456,
      "byteStride": 12,
      "name": "floatBufferViews",
      "target": 34962
    }
  ],
  "buffers": [
    {
      "byteLength": 4376920,
      "uri": "scene.bin"
    }
  ],
  "images": [
    {
      "uri": "textures/Fl1Mtl_baseColor.png"
    },
    {
      "uri": "textures/Fl2Mtl_baseColor.png"
    },
    {
      "uri": "textures/Meshpart12Mtl_baseColor.png"
    }
  ],
  "materials": [
    {
      "doubleSided": true,
      "name": "Cor1Mtl",
      "pbrMetallicRoughness": {
        "baseColorFactor": [
          0.0009921828426137328,
          0.0009001337653328849,
          0.018704943955272953,
          1.0
        ],
        "metallicFactor": 0.0,
        "roughnessFactor": 0.14476234594238763
      }
    },
    {
      "doubleSided": true,
      "name": "Fl1Mtl",
      "pbrMetallicRoughness": {
        "baseColorTexture": {
          "index": 0
        },
        "metallicFactor": 0.0,
        "roughnessFactor": 0.6
      }
    },
    {
      "doubleSided": true,
      "name": "Fl2Mtl",
      "pbrMetallicRoughness": {
        "baseColorTexture": {
          "index": 1
        },
        "metallicFactor": 0.0,
        "roughnessFactor": 0.6
      }
    },
    {
      "doubleSided": true,
      "name": "Meshpart11Mtl",
      "pbrMetallicRoughness": {
        "metallicFactor": 0.0,
        "roughnessFactor": 0.6
      }
    },
    {
      "doubleSided": true,
      "name": "Meshpart12Mtl",
      "pbrMetallicRoughness": {
        "baseColorTexture": {
          "index": 2
        },
        "metallicFactor": 0.0,
        "roughnessFactor": 0.6
      }
    },
    {
      "alphaMode": "BLEND",
      "doubleSided": true,
      "name": "Meshpart1Mtl",
      "pbrMetallicRoughness": {
        "baseColorFactor": [
          1.0,
          1.0,
          1.0,
          0.236191196011264
        ],
        "metallicFactor": 0.0,
        "roughnessFactor": 0.6
      }
    },
    {
      "alphaMode": "BLEND",
      "doubleSided": true,
      "name": "Meshpart2Mtl",
      "pbrMetallicRoughness": {
        "baseColorFactor": [
          0.5612388103215987,
          0.05371120727850678,
          0.05371120727850678,
          0.3154295327376236
        ],
        "metallicFactor": 0.0,
        "roughnessFactor": 0.6
      }
    },
    {
      "alphaMode": "BLEND",
      "doubleSided": true,
      "name": "Meshpart3Mtl",
      "pbrMetallicRoughness": {
        "baseColorFactor": [
          0.4788319434779161,
          0.051726709828884984,
          0.051726709828884984,
          0.364191586107691
        ],
        "metallicFactor": 0.0,
        "roughnessFactor": 0.6
      }
    },
    {
      "alphaMode": "BLEND",
      "doubleSided": true,
      "name": "Meshpart4Mtl",
      "pbrMetallicRoughness": {
        "baseColorFactor": [
          0.48540884404178286,
          0.48540884404178286,
          0.48540884404178286,
          0.11428606258609549
        ],
        "metallicFactor": 0.0,
        "roughnessFactor": 0.6
      }
    }
  ],
  "meshes": [
    {
      "name": "Object_0",
      "primitives": [
        {
          "attributes": {
            "NORMAL": 1,
            "POSITION": 0,
            "TEXCOORD_0": 2
          },
          "indices": 3,
          "material": 3,
          "mode": 4
        }
      ]
    },
    {
      "name": "Object_1",
      "primitives": [
        {
          "attributes": {
            "NORMAL": 5,
            "POSITION": 4,
            "TEXCOORD_0": 6
          },
          "indices": 7,
          "material": 7,
          "mode": 4
        }
      ]
    },
    {
      "name": "Object_2",
      "primitives": [
        {
          "attributes": {
            "NORMAL": 9,
            "POSITION": 8,
            "TEXCOORD_0": 10
          },
          "indices": 11,
          "material": 5,
          "mode": 4
        }
      ]
    },
    {
      "name": "Object_3",
      "primitives": [
        {
          "attributes": {
            "NORMAL": 13,
            "POSITION": 12,
            "TEXCOORD_0": 14
          },
          "indices": 15,
          "material": 4,
          "mode": 4
        }
      ]
    },
    {
      "name": "Object_4",
      "primitives": [
        {
          "attributes": {
            "NORMAL": 17,
            "POSITION": 16,
            "TEXCOORD_0": 18
          },
          "indices": 19,
          "material": 4,
          "mode": 4
        }
      ]
    },
    {
      "name": "Object_5",
      "primitives": [
        {
          "attributes": {
            "NORMAL": 21,
            "POSITION": 20,
            "TEXCOORD_0": 22
          },
          "indices": 23,
          "material": 1,
          "mode": 4
        }
      ]
    },
    {
      "name": "Object_6",
      "primitives": [
        {
          "attributes": {
            "NORMAL": 25,
            "POSITION": 24,
            "TEXCOORD_0": 26
          },
          "indices": 27,
          "material": 1,
          "mode": 4
        }
      ]
    },
    {
      "name": "Object_7",
      "primitives": [
        {
          "attributes": {
            "NORMAL": 29,
            "POSITION": 28,
            "TEXCOORD_0": 30
          },
          "indices": 31,
          "material": 1,
          "mode": 4
        }
      ]
    },
    {
      "name": "Object_8",
      "primitives": [
        {
          "attributes": {
            "NORMAL": 33,
            "POSITION": 32,
            "TEXCOORD_0": 34
          },
          "indices": 35,
          "material": 1,
          "mode": 4
        }
      ]
    },
    {
      "name": "Object_9",
      "primitives": [
        {
          "attributes": {
            "NORMAL": 37,
            "POSITION": 36,
            "TEXCOORD_0": 38
          },
          "indices": 39,
          "material": 0,
          "mode": 4
        }
      ]
    },
    {
      "name": "Object_10",
      "primitives": [
        {
          "attributes": {
            "NORMAL": 41,
            "POSITION": 40,
            "TEXCOORD_0": 42
          },
          "indices": 43,
          "material": 0,
          "mode": 4
        }
      ]
    },
    {
      "name": "Object_11",
      "primitives": [
        {
          "attributes": {
            "NORMAL": 45,
            "POSITION": 44,
            "TEXCOORD_0": 46
          },
          "indices": 47,
          "material": 6,
          "mode": 4
        }
      ]
    },
    {
      "name": "Object_12",
      "primitives": [
        {
          "attributes": {
            "NORMAL": 49,
            "POSITION": 48,
            "TEXCOORD_0": 50
          },
          "indices": 51,
          "material": 2,
          "mode": 4
        }
      ]
    },
    {
      "name": "Object_13",
      "primitives": [
        {
          "attributes": {
            "NORMAL": 53,
            "POSITION": 52,
            "TEXCOORD_0": 54
          },
          "indices": 55,
          "material": 8,
          "mode": 4
        }
      ]
    }
  ],
  "nodes": [
    {
      "children": [
        1
      ],
      "matrix": [
        1.0,
        0.0,
        0.0,
        0.0,
        0.0,
        2.220446049250313e-16,
        -1.0,
        0.0,
        0.0,
        1.0,
        2.220446049250313e-16,
        0.0,
        0.0,
        0.0,
        0.0,
        1.0
      ],
      "name": "Sketchfab_model"
    },
    {
      "children": [
        2,
        3,
        4,
        5,
        6,
        7,
        8,
        9,
        10,
        11,
        12,
        13,
        14,
        15
      ],
      "name": "ka.obj.cleaner.materialmerger.gles"
    },
    {
      "mesh": 0,
      "name": "Object_2"
    },
    {
      "mesh": 1,
      "name": "Object_3"
    },
    {
      "mesh": 2,
      "name": "Object_4"
    },
    {
      "mesh": 3,
      "name": "Object_5"
    },
    {
      "mesh": 4,
      "name": "Object_6"
    },
    {
      "mesh": 5,
      "name": "Object_7"
    },
    {
      "mesh": 6,
      "name": "Object_8"
    },
    {
      "mesh": 7,
      "name": "Object_9"
    },
    {
      "mesh": 8,
      "name": "Object_10"
    },
    {
      "mesh": 9,
      "name": "Object_11"
    },
    {
      "mesh": 10,
      "name": "Object_12"
    },
    {
      "mesh": 11,
      "name": "Object_13"
    },
    {
      "mesh": 12,
      "name": "Object_14"
    },
    {
      "mesh": 13,
      "name": "Object_15"
    }
  ],
  "samplers": [
    {
      "magFilter": 9729,
      "minFilter": 9987,
      "wrapS": 10497,
      "wrapT": 10497
    }
  ],
  "scene": 0,
  "scenes": [
    {
      "name": "Sketchfab_Scene",
      "nodes": [
        0
      ]
    }
  ],
  "textures": [
    {
      "sampler": 0,
      "source": 0
    },
    {
      "sampler": 0,
      "source": 1
    },
    {
      "sampler": 0,
      "source": 2
    }
  ]
}
